<?xml version="1.0" encoding="UTF-8"?>
<svg id="Layer_1" data-name="Layer 1" xmlns="http://www.w3.org/2000/svg" viewBox="0 0 1525 175">
  <defs>
    <style>
      .cls-1 {
        fill: #fff;
      }
    </style>
  </defs>
  <polygon class="cls-1" points="160.54 41.67 204.23 41.67 204.23 161.65 236.94 161.65 236.94 41.67 280.62 41.67 280.62 13.31 160.54 13.31 160.54 41.67"/>
  <path class="cls-1" d="M435.64,82.63v-45.83c0-13.51-11.06-24.37-24.83-24.37h-93.22v149.21h32.71v-54.69h32.08l26.16,54.69h35.86l-26.61-55.56c10.4-3.09,17.84-12.38,17.84-23.46ZM404.07,76.86c0,1.34-.89,2.22-2.26,2.22h-51.47v-37.84h51.47c1.37,0,2.26.87,2.26,2.22v33.41Z"/>
  <path class="cls-1" d="M579.94,12.44h-70.11c-13.77,0-24.83,10.86-24.83,24.37v100.91c0,13.51,11.06,24.37,24.83,24.37h70.11v.04c13.77,0,24.83-10.86,24.83-24.37V36.81c0-13.51-11.06-24.37-24.83-24.37ZM573.35,131.55c0,1.34-.89,2.22-2.26,2.22h-52.49c-1.37,0-2.26-.87-2.26-2.22V43.45c0-1.34.89-2.22,2.26-2.22h52.49c1.37,0,2.26.87,2.26,2.22v88.09Z"/>
  <polygon class="cls-1" points="747.12 100.1 687.28 13.31 655.68 13.31 655.68 161.65 687.28 161.65 687.28 75.3 747.12 161.65 778.72 161.65 778.72 13.31 747.12 13.31 747.12 100.1"/>
  <path class="cls-1" d="M888.49,103.54h28.03v28.19c0,1.34-.89,2.22-2.26,2.22h-51.31c-1.37,0-2.26-.87-2.26-2.22V42.62c0-1.34.89-2.22,2.26-2.22h51.08c1.37,0,2.26.87,2.26,2.22v15.91h32.05v-21.72c0-13.51-11.06-24.37-24.83-24.37h-69.84c-13.77,0-24.83,10.86-24.83,25.67v100.08c0,12.2,11.06,24.37,24.83,24.37h70.07c13.77,0,24.83-10.86,24.83-24.37v-62.54h-60.08v27.89Z"/>
  <rect class="cls-1" x="1157.9" y="13.31" width="37.58" height="148.34"/>
  <polygon class="cls-1" points="1358.72 41.46 1358.72 13.31 1249.7 13.31 1249.7 41.42 1315.04 41.42 1248.81 133.51 1248.81 161.65 1359.83 161.65 1359.83 133.54 1292.02 133.54 1358.72 41.46"/>
  <polygon class="cls-1" points="1441.86 133.33 1441.86 99.92 1507.54 99.92 1507.54 71.56 1441.86 71.56 1441.86 41.67 1512.28 41.67 1512.28 13.31 1409.14 13.31 1409.14 161.69 1512.5 161.69 1512.5 133.33 1441.86 133.33"/>
  <path class="cls-1" d="M107.52,82.2l-60.35-14.13c-2.18-.62-3.66-2.58-3.66-4.79v-17.68c0-2.76,2.26-4.97,5.07-4.97h39.37c2.81,0,5.07,2.22,5.07,4.97v16.41l30.71,5.37v-29.49c0-14.02-11.58-25.38-25.87-25.38h-59.46c-14.28,0-25.87,11.33-25.9,25.35v30.5c0,11.26,7.55,21.13,18.54,24.33l60.24,14.09c2.18.62,3.66,2.58,3.66,4.79v17.76c0,2.76-2.26,4.97-5.07,4.97h-39.26c-2.81,0-5.07-2.22-5.07-4.97v-16.34l-30.71-5.37v29.49c0,14.02,11.58,25.38,25.87,25.38h59.54c14.28,0,25.87-11.37,25.87-25.38v-30.58c0-11.26-7.59-21.17-18.58-24.33Z"/>
  <path class="cls-1" d="M1091.54,82.2l-60.35-14.13c-2.18-.62-3.66-2.58-3.66-4.79v-17.68c0-2.76,2.26-4.97,5.07-4.97h39.37c2.81,0,5.07,2.22,5.07,4.97v16.41l30.71,5.37v-29.49c0-14.02-11.58-25.38-25.87-25.38h-59.46c-14.28,0-25.87,11.33-25.9,25.35v30.5c0,11.26,7.55,21.13,18.54,24.33l60.24,14.09c2.18.62,3.66,2.58,3.66,4.79v17.76c0,2.76-2.26,4.97-5.07,4.97h-39.26c-2.81,0-5.07-2.22-5.07-4.97v-16.34l-30.72-5.37v29.49c0,14.02,11.58,25.38,25.87,25.38h59.54c14.28,0,25.87-11.37,25.87-25.38v-30.58c0-11.26-7.59-21.17-18.58-24.33Z"/>
</svg>